{
    "asset" : {
        "generator" : "Khronos glTF Blender I/O v3.3.32",
        "version" : "2.0"
    },
    "scene" : 0,
    "scenes" : [
        {
            "name" : "Scene",
            "nodes" : [
                0,
                1,
                2
            ]
        }
    ],
    "nodes" : [
        {
            "mesh" : 0,
            "name" : "sapin.tronc",
            "rotation" : [
                1,
                0,
                0,
                0
            ],
            "scale" : [
                -0.1582394689321518,
                -0.2297939658164978,
                -0.1582394689321518
            ],
            "translation" : [
                -0.04199238121509552,
                0.23081861436367035,
                0.06678545475006104
            ]
        },
        {
            "mesh" : 1,
            "name" : "sapin.001",
            "rotation" : [
                1,
                0,
                0,
                0
            ],
            "scale" : [
                -0.6474944949150085,
                -1.0856842994689941,
                -0.6474944949150085
            ],
            "translation" : [
                -0.04199238121509552,
                1.5076794624328613,
                0.05316174030303955
            ]
        },
        {
            "mesh" : 2,
            "name" : "sapin",
            "rotation" : [
                1,
                0,
                0,
                0
            ],
            "scale" : [
                -0.6474944949150085,
                -1.0856842994689941,
                -0.6474944949150085
            ],
            "translation" : [
                -0.04199238121509552,
                1.5076794624328613,
                0.05316174030303955
            ]
        }
    ],
    "materials" : [
        {
            "doubleSided" : true,
            "name" : "tronc",
            "pbrMetallicRoughness" : {
                "baseColorFactor" : [
                    0.010960041545331478,
                    0.015996264293789864,
                    0.06480325758457184,
                    1
                ],
                "metallicFactor" : 0,
                "roughnessFactor" : 0.5
            }
        },
        {
            "doubleSided" : true,
            "name" : "neige",
            "pbrMetallicRoughness" : {
                "baseColorFactor" : [
                    0.9473053812980652,
                    0.9473055005073547,
                    0.9473063945770264,
                    1
                ],
                "metallicFactor" : 0,
                "roughnessFactor" : 0.5
            }
        },
        {
            "doubleSided" : true,
            "name" : "vert",
            "pbrMetallicRoughness" : {
                "baseColorFactor" : [
                    0.23073945939540863,
                    0.4851495027542114,
                    0.5209954977035522,
                    1
                ],
                "metallicFactor" : 0,
                "roughnessFactor" : 0.5
            }
        }
    ],
    "meshes" : [
        {
            "name" : "Cylinder.003",
            "primitives" : [
                {
                    "attributes" : {
                        "POSITION" : 0,
                        "NORMAL" : 1,
                        "TEXCOORD_0" : 2
                    },
                    "indices" : 3,
                    "material" : 0
                }
            ]
        },
        {
            "name" : "Cone.002",
            "primitives" : [
                {
                    "attributes" : {
                        "POSITION" : 4,
                        "NORMAL" : 5,
                        "TEXCOORD_0" : 6
                    },
                    "indices" : 7,
                    "material" : 1
                }
            ]
        },
        {
            "name" : "Cone.003",
            "primitives" : [
                {
                    "attributes" : {
                        "POSITION" : 8,
                        "NORMAL" : 9,
                        "TEXCOORD_0" : 10
                    },
                    "indices" : 11,
                    "material" : 2
                }
            ]
        }
    ],
    "accessors" : [
        {
            "bufferView" : 0,
            "componentType" : 5126,
            "count" : 66,
            "max" : [
                1,
                1,
                1
            ],
            "min" : [
                -1,
                -1,
                -1
            ],
            "type" : "VEC3"
        },
        {
            "bufferView" : 1,
            "componentType" : 5126,
            "count" : 66,
            "type" : "VEC3"
        },
        {
            "bufferView" : 2,
            "componentType" : 5126,
            "count" : 66,
            "type" : "VEC2"
        },
        {
            "bufferView" : 3,
            "componentType" : 5123,
            "count" : 180,
            "type" : "SCALAR"
        },
        {
            "bufferView" : 4,
            "componentType" : 5126,
            "count" : 1538,
            "max" : [
                0.6531240940093994,
                1.0167733430862427,
                0.6531240940093994
            ],
            "min" : [
                -0.6531240940093994,
                -0.27832967042922974,
                -0.6531240940093994
            ],
            "type" : "VEC3"
        },
        {
            "bufferView" : 5,
            "componentType" : 5126,
            "count" : 1538,
            "type" : "VEC3"
        },
        {
            "bufferView" : 6,
            "componentType" : 5126,
            "count" : 1538,
            "type" : "VEC2"
        },
        {
            "bufferView" : 7,
            "componentType" : 5123,
            "count" : 9216,
            "type" : "SCALAR"
        },
        {
            "bufferView" : 8,
            "componentType" : 5126,
            "count" : 25,
            "max" : [
                1,
                1,
                1
            ],
            "min" : [
                -1,
                -1,
                -1
            ],
            "type" : "VEC3"
        },
        {
            "bufferView" : 9,
            "componentType" : 5126,
            "count" : 25,
            "type" : "VEC3"
        },
        {
            "bufferView" : 10,
            "componentType" : 5126,
            "count" : 25,
            "type" : "VEC2"
        },
        {
            "bufferView" : 11,
            "componentType" : 5123,
            "count" : 66,
            "type" : "SCALAR"
        }
    ],
    "bufferViews" : [
        {
            "buffer" : 0,
            "byteLength" : 792,
            "byteOffset" : 0,
            "target" : 34962
        },
        {
            "buffer" : 0,
            "byteLength" : 792,
            "byteOffset" : 792,
            "target" : 34962
        },
        {
            "buffer" : 0,
            "byteLength" : 528,
            "byteOffset" : 1584,
            "target" : 34962
        },
        {
            "buffer" : 0,
            "byteLength" : 360,
            "byteOffset" : 2112,
            "target" : 34963
        },
        {
            "buffer" : 0,
            "byteLength" : 18456,
            "byteOffset" : 2472,
            "target" : 34962
        },
        {
            "buffer" : 0,
            "byteLength" : 18456,
            "byteOffset" : 20928,
            "target" : 34962
        },
        {
            "buffer" : 0,
            "byteLength" : 12304,
            "byteOffset" : 39384,
            "target" : 34962
        },
        {
            "buffer" : 0,
            "byteLength" : 18432,
            "byteOffset" : 51688,
            "target" : 34963
        },
        {
            "buffer" : 0,
            "byteLength" : 300,
            "byteOffset" : 70120,
            "target" : 34962
        },
        {
            "buffer" : 0,
            "byteLength" : 300,
            "byteOffset" : 70420,
            "target" : 34962
        },
        {
            "buffer" : 0,
            "byteLength" : 200,
            "byteOffset" : 70720,
            "target" : 34962
        },
        {
            "buffer" : 0,
            "byteLength" : 132,
            "byteOffset" : 70920,
            "target" : 34963
        }
    ],
    "buffers" : [
        {
            "byteLength" : 71052,
            "uri" : "data:application/octet-stream;base64,"
        }
    ]
}
