<svg width="102" height="128" viewBox="0 0 102 128" fill="none" xmlns="http://www.w3.org/2000/svg">
<path d="M53.5553 32.9384L58 17.5143L62.4447 32.9384C66.5106 47.0479 76.4332 58.7357 89.6957 65.0375L99.0874 69.5L89.6957 73.9625C76.4332 80.2643 66.5106 91.9521 62.4447 106.062L58 121.486L53.5553 106.062C49.4894 91.9521 39.5668 80.2643 26.3043 73.9625L16.9126 69.5L26.3043 65.0375C39.5668 58.7357 49.4894 47.0479 53.5553 32.9384Z" fill="black" stroke="black" stroke-width="2.5"/>
<path d="M43.956 25.4079L50 4.50099L56.044 25.408C60.1238 39.5206 70.0635 51.2039 83.3401 57.4923L97.0798 64L83.3401 70.5077C70.0635 76.7961 60.1238 88.4794 56.044 102.592L50 123.499L43.956 102.592C39.8762 88.4794 29.9365 76.7961 16.6599 70.5077L2.92018 64L16.6599 57.4923C29.9365 51.2039 39.8762 39.5206 43.956 25.4079Z" fill="white" stroke="black" stroke-width="2.5"/>
</svg>
